<svg width="366" height="62" viewBox="0 0 366 62" fill="none" xmlns="http://www.w3.org/2000/svg">
<path d="M31.4941 25.7236C32.1135 25.3711 32.8733 25.3749 33.4893 25.7334L60.9248 41.7031C62.267 42.4846 62.2451 44.4306 60.8857 45.1816L33.5293 60.2891C32.9053 60.6337 32.1445 60.6206 31.5332 60.2539L4.91602 44.2832C3.604 43.496 3.6254 41.587 4.95508 40.8301L31.4941 25.7236Z" fill="#458BC9" stroke="white" stroke-width="2"/>
<path d="M31.4941 13.7236C32.1135 13.3711 32.8733 13.3749 33.4893 13.7334L60.9248 29.7031C62.267 30.4846 62.2451 32.4306 60.8857 33.1816L33.5293 48.2891C32.9053 48.6337 32.1445 48.6206 31.5332 48.2539L4.91602 32.2832C3.604 31.496 3.6254 29.587 4.95508 28.8301L31.4941 13.7236Z" fill="#458BC9" stroke="white" stroke-width="2"/>
<path d="M31.4941 1.72363C32.1135 1.37111 32.8733 1.37488 33.4893 1.7334L60.9248 17.7031C62.267 18.4846 62.2451 20.4306 60.8857 21.1816L33.5293 36.2891C32.9053 36.6337 32.1445 36.6206 31.5332 36.2539L4.91602 20.2832C3.604 19.496 3.6254 17.587 4.95508 16.8301L31.4941 1.72363Z" fill="#458BC9" stroke="white" stroke-width="2"/>
<path d="M102.261 31.4545C102.261 34.6269 101.66 37.3258 100.457 39.5511C99.2642 41.7765 97.6354 43.4763 95.571 44.6506C93.5161 45.8153 91.2055 46.3977 88.6392 46.3977C86.054 46.3977 83.7339 45.8106 81.679 44.6364C79.6241 43.4621 78 41.7623 76.8068 39.5369C75.6136 37.3116 75.017 34.6174 75.017 31.4545C75.017 28.2822 75.6136 25.5833 76.8068 23.358C78 21.1326 79.6241 19.4375 81.679 18.2727C83.7339 17.0985 86.054 16.5114 88.6392 16.5114C91.2055 16.5114 93.5161 17.0985 95.571 18.2727C97.6354 19.4375 99.2642 21.1326 100.457 23.358C101.66 25.5833 102.261 28.2822 102.261 31.4545ZM96.0256 31.4545C96.0256 29.3996 95.7178 27.6667 95.1023 26.2557C94.4962 24.8447 93.6392 23.7746 92.5312 23.0455C91.4233 22.3163 90.1259 21.9517 88.6392 21.9517C87.1525 21.9517 85.8551 22.3163 84.7472 23.0455C83.6392 23.7746 82.7775 24.8447 82.1619 26.2557C81.5559 27.6667 81.2528 29.3996 81.2528 31.4545C81.2528 33.5095 81.5559 35.2424 82.1619 36.6534C82.7775 38.0644 83.6392 39.1345 84.7472 39.8636C85.8551 40.5928 87.1525 40.9574 88.6392 40.9574C90.1259 40.9574 91.4233 40.5928 92.5312 39.8636C93.6392 39.1345 94.4962 38.0644 95.1023 36.6534C95.7178 35.2424 96.0256 33.5095 96.0256 31.4545ZM102.017 46V16.9091H113.495C115.692 16.9091 117.567 17.3021 119.12 18.0881C120.682 18.8646 121.871 19.9678 122.685 21.3977C123.509 22.8182 123.921 24.4896 123.921 26.4119C123.921 28.3437 123.504 30.0057 122.671 31.3977C121.838 32.7803 120.63 33.8409 119.049 34.5795C117.477 35.3182 115.573 35.6875 113.338 35.6875H105.654V30.7443H112.344C113.518 30.7443 114.494 30.5833 115.27 30.2614C116.047 29.9394 116.624 29.4564 117.003 28.8125C117.392 28.1686 117.586 27.3684 117.586 26.4119C117.586 25.446 117.392 24.6316 117.003 23.9688C116.624 23.3059 116.042 22.804 115.256 22.4631C114.48 22.1127 113.499 21.9375 112.316 21.9375H108.168V46H102.017ZM117.728 32.7614L124.958 46H118.168L111.094 32.7614H117.728ZM128.482 46H121.891L131.933 16.9091H139.86L149.888 46H143.297L136.01 23.5568H135.783L128.482 46ZM128.07 34.5653H143.638V39.3665H128.07V34.5653ZM154.356 16.9091L160.223 26.8239H160.45L166.345 16.9091H173.291L164.413 31.4545L173.49 46H166.416L160.45 36.071H160.223L154.257 46H147.212L156.317 31.4545L147.382 16.9091H154.356ZM181.73 46H178.946L189.528 16.9091H192.369L202.951 46H200.167L191.048 20.3608H190.849L181.73 46ZM183.733 34.8494H198.164V37.2358H183.733V34.8494ZM210.593 16.9091V46H207.937V16.9091H210.593Z" fill="black"/>
<path d="M361 7C363.761 7 366 9.23858 366 12V22.9941L350.084 30.5L366 38.0049V50C366 52.7614 363.761 55 361 55H240C237.239 55 235 52.7614 235 50V12C235 9.23858 237.239 7 240 7H361Z" fill="#458BC9"/>
<path d="M257.942 44L250.659 18.5455H256.538L260.751 36.2319H260.962L265.611 18.5455H270.645L275.281 36.2692H275.504L279.718 18.5455H285.597L278.313 44H273.068L268.221 27.3576H268.022L263.187 44H257.942ZM288.477 18.5455H295.114L302.124 35.6477H302.422L309.432 18.5455H316.069V44H310.849V27.4322H310.638L304.051 43.8757H300.496L293.908 27.37H293.697V44H288.477V18.5455ZM334.312 25.8661C334.213 24.8635 333.786 24.0846 333.032 23.5295C332.278 22.9743 331.254 22.6967 329.962 22.6967C329.084 22.6967 328.342 22.821 327.737 23.0696C327.132 23.3099 326.668 23.6455 326.345 24.0763C326.03 24.5072 325.873 24.9961 325.873 25.543C325.856 25.9987 325.951 26.3964 326.159 26.7362C326.374 27.0759 326.668 27.37 327.041 27.6186C327.414 27.8589 327.845 28.0702 328.334 28.2525C328.823 28.4265 329.345 28.5756 329.9 28.6999L332.187 29.2468C333.297 29.4954 334.316 29.8268 335.244 30.2411C336.172 30.6554 336.976 31.165 337.655 31.7699C338.335 32.3748 338.861 33.0874 339.234 33.9077C339.615 34.728 339.81 35.6684 339.818 36.729C339.81 38.2868 339.412 39.6374 338.625 40.7809C337.846 41.9161 336.719 42.7985 335.244 43.4283C333.778 44.0497 332.008 44.3604 329.937 44.3604C327.882 44.3604 326.092 44.0456 324.568 43.4158C323.051 42.7861 321.866 41.8539 321.013 40.6193C320.168 39.3764 319.724 37.8394 319.683 36.0082H324.891C324.949 36.8616 325.193 37.5742 325.624 38.146C326.063 38.7094 326.647 39.1361 327.377 39.4261C328.114 39.7079 328.947 39.8487 329.875 39.8487C330.786 39.8487 331.578 39.7161 332.249 39.451C332.928 39.1858 333.454 38.8171 333.827 38.3448C334.2 37.8725 334.387 37.3298 334.387 36.7166C334.387 36.1449 334.217 35.6643 333.877 35.2749C333.546 34.8854 333.057 34.554 332.41 34.2805C331.772 34.0071 330.989 33.7585 330.061 33.5348L327.29 32.8388C325.144 32.3168 323.449 31.5006 322.206 30.3903C320.963 29.2799 320.346 27.7843 320.354 25.9034C320.346 24.3622 320.756 23.0157 321.585 21.864C322.422 20.7122 323.569 19.8132 325.028 19.1669C326.486 18.5206 328.143 18.1974 329.999 18.1974C331.888 18.1974 333.537 18.5206 334.946 19.1669C336.363 19.8132 337.465 20.7122 338.252 21.864C339.039 23.0157 339.445 24.3498 339.47 25.8661H334.312Z" fill="white"/>
<path d="M216.716 15.4943V10.2528H219.372C219.585 10.2528 219.817 10.3144 220.068 10.4375C220.319 10.5559 220.532 10.7405 220.707 10.9915C220.887 11.2377 220.977 11.5502 220.977 11.929C220.977 12.3125 220.885 12.6392 220.7 12.9091C220.516 13.1742 220.291 13.3755 220.026 13.5128C219.765 13.6501 219.519 13.7188 219.287 13.7188H217.369V12.8665H218.932C219.088 12.8665 219.256 12.7884 219.436 12.6321C219.621 12.4759 219.713 12.2415 219.713 11.929C219.713 11.607 219.621 11.3892 219.436 11.2756C219.256 11.1619 219.098 11.1051 218.96 11.1051H217.866V15.4943H216.716ZM219.884 13.0227L221.19 15.4943H219.926L218.648 13.0227H219.884ZM218.705 18.6193C217.919 18.6193 217.182 18.4725 216.496 18.179C215.809 17.8854 215.205 17.4782 214.685 16.9574C214.164 16.4366 213.757 15.8329 213.463 15.1463C213.17 14.4598 213.023 13.7235 213.023 12.9375C213.023 12.1515 213.17 11.4152 213.463 10.7287C213.757 10.0421 214.164 9.43845 214.685 8.91761C215.205 8.39678 215.809 7.98958 216.496 7.69602C217.182 7.40246 217.919 7.25568 218.705 7.25568C219.491 7.25568 220.227 7.40246 220.913 7.69602C221.6 7.98958 222.204 8.39678 222.724 8.91761C223.245 9.43845 223.652 10.0421 223.946 10.7287C224.24 11.4152 224.386 12.1515 224.386 12.9375C224.386 13.7235 224.24 14.4598 223.946 15.1463C223.652 15.8329 223.245 16.4366 222.724 16.9574C222.204 17.4782 221.6 17.8854 220.913 18.179C220.227 18.4725 219.491 18.6193 218.705 18.6193ZM218.705 17.2557C219.5 17.2557 220.224 17.0616 220.878 16.6733C221.531 16.285 222.052 15.7642 222.44 15.1108C222.829 14.4574 223.023 13.733 223.023 12.9375C223.023 12.142 222.829 11.4176 222.44 10.7642C222.052 10.1108 221.531 9.58996 220.878 9.2017C220.224 8.81345 219.5 8.61932 218.705 8.61932C217.909 8.61932 217.185 8.81345 216.531 9.2017C215.878 9.58996 215.357 10.1108 214.969 10.7642C214.58 11.4176 214.386 12.142 214.386 12.9375C214.386 13.733 214.58 14.4574 214.969 15.1108C215.357 15.7642 215.878 16.285 216.531 16.6733C217.185 17.0616 217.909 17.2557 218.705 17.2557Z" fill="black"/>
</svg>
