<svg width="66" height="62" viewBox="0 0 66 62" fill="none" xmlns="http://www.w3.org/2000/svg">
<path d="M31.4941 25.7236C32.0747 25.3932 32.7788 25.3755 33.3721 25.6699L33.4893 25.7334L60.9248 41.7031C62.267 42.4846 62.2451 44.4306 60.8857 45.1816L33.5293 60.2891C32.9442 60.6122 32.239 60.6208 31.6494 60.3184L31.5332 60.2539L4.91602 44.2832C3.604 43.496 3.6254 41.587 4.95508 40.8301L31.4941 25.7236Z" fill="#458BC9" stroke="white" stroke-width="2"/>
<path d="M31.4941 13.7236C32.0747 13.3932 32.7788 13.3755 33.3721 13.6699L33.4893 13.7334L60.9248 29.7031C62.267 30.4846 62.2451 32.4306 60.8857 33.1816L33.5293 48.2891C32.9442 48.6122 32.239 48.6208 31.6494 48.3184L31.5332 48.2539L4.91602 32.2832C3.604 31.496 3.6254 29.587 4.95508 28.8301L31.4941 13.7236Z" fill="#458BC9" stroke="white" stroke-width="2"/>
<path d="M31.4941 1.72363C32.0747 1.39318 32.7788 1.3755 33.3721 1.66992L33.4893 1.7334L60.9248 17.7031C62.267 18.4846 62.2451 20.4306 60.8857 21.1816L33.5293 36.2891C32.9442 36.6122 32.239 36.6208 31.6494 36.3184L31.5332 36.2539L4.91602 20.2832C3.604 19.496 3.6254 17.587 4.95508 16.8301L31.4941 1.72363Z" fill="#458BC9" stroke="white" stroke-width="2"/>
</svg>
